<svg xmlns="http://www.w3.org/2000/svg" viewBox="0 0 320 260" role="img" aria-labelledby="title desc">
  <title id="title">Winfield Liquors bear fishing logo</title>
  <desc id="desc">A bear mascot in a navy and orange football-style hoodie holding a beer and a fishing rod.</desc>
  <defs>
    <linearGradient id="badge" x1="44" y1="36" x2="276" y2="224" gradientUnits="userSpaceOnUse">
      <stop offset="0" stop-color="#173f2f"/>
      <stop offset="1" stop-color="#082f49"/>
    </linearGradient>
    <linearGradient id="beer" x1="74" y1="136" x2="108" y2="191" gradientUnits="userSpaceOnUse">
      <stop offset="0" stop-color="#ffe07a"/>
      <stop offset="1" stop-color="#b98a3b"/>
    </linearGradient>
  </defs>

  <path d="M30 130 C30 56 82 25 160 25 C238 25 290 56 290 130 C290 204 238 235 160 235 C82 235 30 204 30 130 Z" fill="#f8edd0"/>
  <path d="M43 130 C43 66 90 40 160 40 C230 40 277 66 277 130 C277 194 230 220 160 220 C90 220 43 194 43 130 Z" fill="url(#badge)"/>
  <path d="M58 130 C58 77 100 55 160 55 C220 55 262 77 262 130 C262 183 220 205 160 205 C100 205 58 183 58 130 Z" fill="none" stroke="#f8edd0" stroke-width="5" opacity="0.9"/>

  <path d="M52 181 C81 170 105 170 134 181 C163 192 189 192 218 181 C239 173 256 173 270 180" fill="none" stroke="#80c7cf" stroke-width="8" stroke-linecap="round" opacity="0.9"/>

  <path d="M116 118 C98 124 88 142 86 174 C105 194 130 203 160 203 C190 203 215 194 234 174 C232 142 222 124 204 118 Z" fill="#0b2341"/>
  <path d="M105 128 C122 139 139 145 160 145 C181 145 198 139 215 128" fill="none" stroke="#f36f21" stroke-width="8" stroke-linecap="round"/>
  <path d="M135 150 L160 174 L185 150" fill="none" stroke="#f8edd0" stroke-width="5" stroke-linecap="round" stroke-linejoin="round" opacity="0.82"/>
  <path d="M147 118 L133 144" fill="none" stroke="#f8edd0" stroke-width="4" stroke-linecap="round" opacity="0.78"/>
  <path d="M173 118 L187 144" fill="none" stroke="#f8edd0" stroke-width="4" stroke-linecap="round" opacity="0.78"/>

  <circle cx="117" cy="77" r="20" fill="#6d3f22"/>
  <circle cx="203" cy="77" r="20" fill="#6d3f22"/>
  <circle cx="117" cy="77" r="10" fill="#c18a5b"/>
  <circle cx="203" cy="77" r="10" fill="#c18a5b"/>
  <path d="M103 89 C104 55 127 38 160 38 C193 38 216 55 217 89 C218 125 195 148 160 148 C125 148 102 125 103 89 Z" fill="#7a4728"/>
  <path d="M124 101 C128 86 141 78 160 78 C179 78 192 86 196 101 C198 121 182 134 160 134 C138 134 122 121 124 101 Z" fill="#c18a5b"/>
  <circle cx="143" cy="91" r="5" fill="#111827"/>
  <circle cx="177" cy="91" r="5" fill="#111827"/>
  <path d="M154 106 C156 101 164 101 166 106 C164 111 156 111 154 106 Z" fill="#111827"/>
  <path d="M151 119 C156 124 164 124 169 119" fill="none" stroke="#111827" stroke-width="4" stroke-linecap="round"/>
  <path d="M127 70 C140 61 154 58 169 61" fill="none" stroke="#4a2a18" stroke-width="5" stroke-linecap="round" opacity="0.55"/>

  <path d="M92 138 C73 139 62 153 62 172 C62 187 72 199 87 198 C101 197 109 185 108 170" fill="#7a4728"/>
  <rect x="62" y="143" width="36" height="48" rx="7" fill="url(#beer)"/>
  <path d="M67 136 H92 C96 136 99 139 99 143 V149 H60 V143 C60 139 63 136 67 136 Z" fill="#fff5d4"/>
  <path d="M98 155 H106 C115 155 120 161 120 170 C120 180 115 186 106 186 H98" fill="none" stroke="#f4c45f" stroke-width="7" stroke-linecap="round"/>
  <path d="M72 154 V181" stroke="#fff0b3" stroke-width="4" stroke-linecap="round" opacity="0.72"/>
  <path d="M86 154 V181" stroke="#fff0b3" stroke-width="4" stroke-linecap="round" opacity="0.72"/>

  <path d="M226 138 C248 144 257 163 250 184 C244 198 229 204 216 195 C204 187 205 174 214 164" fill="#7a4728"/>
  <path d="M229 145 L262 67" fill="none" stroke="#f8edd0" stroke-width="5" stroke-linecap="round"/>
  <path d="M262 67 C283 74 294 91 292 115" fill="none" stroke="#f4c45f" stroke-width="3" stroke-linecap="round"/>
  <path d="M292 115 C291 131 282 139 269 137" fill="none" stroke="#f4c45f" stroke-width="3" stroke-linecap="round"/>
  <path d="M248 184 C260 175 277 176 289 188 C276 200 260 201 248 191 Z" fill="#80c7cf"/>
  <path d="M248 188 L236 179 L237 197 Z" fill="#80c7cf"/>
  <circle cx="280" cy="188" r="2.7" fill="#082f49"/>

  <path d="M104 216 H216" stroke="#f8edd0" stroke-width="6" stroke-linecap="round" opacity="0.9"/>
  <text x="160" y="245" text-anchor="middle" font-family="Georgia, 'Times New Roman', serif" font-size="25" font-weight="900" letter-spacing="2" fill="#082f49">WINFIELD</text>
</svg>
